<svg width="116" height="32" viewBox="0 0 116 32" fill="none" xmlns="http://www.w3.org/2000/svg">
<path d="M3.5332 10.0449C3.5332 4.52208 8.01036 0.0449219 13.5332 0.0449219H103.056C108.579 0.0449219 113.056 4.52207 113.056 10.0449V21.9561C113.056 27.4789 108.579 31.9561 103.056 31.9561H13.5332C8.01035 31.9561 3.5332 27.4789 3.5332 21.9561V10.0449Z" fill="url(#paint0_linear_231_9306)"/>
<path d="M38.6061 23.7996C37.5261 23.7996 36.5194 23.6262 35.5861 23.2796C34.6661 22.9196 33.8661 22.4129 33.1861 21.7596C32.5061 21.1062 31.9728 20.3396 31.5861 19.4596C31.2128 18.5796 31.0261 17.6129 31.0261 16.5596C31.0261 15.5062 31.2128 14.5396 31.5861 13.6596C31.9728 12.7796 32.5061 12.0129 33.1861 11.3596C33.8794 10.7062 34.6861 10.2062 35.6061 9.85957C36.5261 9.49957 37.5328 9.31957 38.6261 9.31957C39.8394 9.31957 40.9328 9.5329 41.9061 9.95957C42.8928 10.3729 43.7194 10.9862 44.3861 11.7996L42.3061 13.7196C41.8261 13.1729 41.2928 12.7662 40.7061 12.4996C40.1194 12.2196 39.4794 12.0796 38.7861 12.0796C38.1328 12.0796 37.5328 12.1862 36.9861 12.3996C36.4394 12.6129 35.9661 12.9196 35.5661 13.3196C35.1661 13.7196 34.8528 14.1929 34.6261 14.7396C34.4128 15.2862 34.3061 15.8929 34.3061 16.5596C34.3061 17.2262 34.4128 17.8329 34.6261 18.3796C34.8528 18.9262 35.1661 19.3996 35.5661 19.7996C35.9661 20.1996 36.4394 20.5062 36.9861 20.7196C37.5328 20.9329 38.1328 21.0396 38.7861 21.0396C39.4794 21.0396 40.1194 20.9062 40.7061 20.6396C41.2928 20.3596 41.8261 19.9396 42.3061 19.3796L44.3861 21.2996C43.7194 22.1129 42.8928 22.7329 41.9061 23.1596C40.9328 23.5862 39.8328 23.7996 38.6061 23.7996ZM52.8941 12.6396C53.7474 12.6396 54.5074 12.8129 55.1741 13.1596C55.8541 13.4929 56.3874 14.0129 56.7741 14.7196C57.1607 15.4129 57.3541 16.3062 57.3541 17.3996V23.5596H54.2341V17.8796C54.2341 17.0129 54.0407 16.3729 53.6541 15.9596C53.2807 15.5462 52.7474 15.3396 52.0541 15.3396C51.5607 15.3396 51.1141 15.4462 50.7141 15.6596C50.3274 15.8596 50.0207 16.1729 49.7941 16.5996C49.5807 17.0262 49.4741 17.5729 49.4741 18.2396V23.5596H46.3541V8.71957H49.4741V15.7796L48.7741 14.8796C49.1607 14.1596 49.7141 13.6062 50.4341 13.2196C51.1541 12.8329 51.9741 12.6396 52.8941 12.6396ZM65.3803 23.7196C64.2336 23.7196 63.2136 23.4796 62.3203 22.9996C61.4403 22.5196 60.7403 21.8662 60.2203 21.0396C59.7136 20.1996 59.4603 19.2462 59.4603 18.1796C59.4603 17.0996 59.7136 16.1462 60.2203 15.3196C60.7403 14.4796 61.4403 13.8262 62.3203 13.3596C63.2136 12.8796 64.2336 12.6396 65.3803 12.6396C66.5136 12.6396 67.527 12.8796 68.4203 13.3596C69.3136 13.8262 70.0136 14.4729 70.5203 15.2996C71.027 16.1262 71.2803 17.0862 71.2803 18.1796C71.2803 19.2462 71.027 20.1996 70.5203 21.0396C70.0136 21.8662 69.3136 22.5196 68.4203 22.9996C67.527 23.4796 66.5136 23.7196 65.3803 23.7196ZM65.3803 21.1596C65.9003 21.1596 66.367 21.0396 66.7803 20.7996C67.1936 20.5596 67.5203 20.2196 67.7603 19.7796C68.0003 19.3262 68.1203 18.7929 68.1203 18.1796C68.1203 17.5529 68.0003 17.0196 67.7603 16.5796C67.5203 16.1396 67.1936 15.7996 66.7803 15.5596C66.367 15.3196 65.9003 15.1996 65.3803 15.1996C64.8603 15.1996 64.3936 15.3196 63.9803 15.5596C63.567 15.7996 63.2336 16.1396 62.9803 16.5796C62.7403 17.0196 62.6203 17.5529 62.6203 18.1796C62.6203 18.7929 62.7403 19.3262 62.9803 19.7796C63.2336 20.2196 63.567 20.5596 63.9803 20.7996C64.3936 21.0396 64.8603 21.1596 65.3803 21.1596ZM65.3403 27.7596C64.9536 27.7596 64.627 27.6396 64.3603 27.3996C64.0936 27.1596 63.9603 26.8329 63.9603 26.4196C63.9603 26.0062 64.0936 25.6662 64.3603 25.3996C64.627 25.1462 64.9536 25.0196 65.3403 25.0196C65.727 25.0196 66.0536 25.1462 66.3203 25.3996C66.587 25.6662 66.7203 26.0062 66.7203 26.4196C66.7203 26.8329 66.587 27.1596 66.3203 27.3996C66.0536 27.6396 65.727 27.7596 65.3403 27.7596ZM79.9058 12.6396C80.7591 12.6396 81.5191 12.8129 82.1858 13.1596C82.8658 13.4929 83.3991 14.0129 83.7858 14.7196C84.1724 15.4129 84.3658 16.3062 84.3658 17.3996V23.5596H81.2458V17.8796C81.2458 17.0129 81.0524 16.3729 80.6658 15.9596C80.2924 15.5462 79.7591 15.3396 79.0658 15.3396C78.5724 15.3396 78.1258 15.4462 77.7258 15.6596C77.3391 15.8596 77.0324 16.1729 76.8058 16.5996C76.5924 17.0262 76.4858 17.5729 76.4858 18.2396V23.5596H73.3658V12.7996H76.3458V15.7796L75.7858 14.8796C76.1724 14.1596 76.7258 13.6062 77.4458 13.2196C78.1658 12.8329 78.9858 12.6396 79.9058 12.6396Z" fill="white"/>
<defs>
<linearGradient id="paint0_linear_231_9306" x1="11.1971" y1="25.6081" x2="101.947" y2="-4.91499" gradientUnits="userSpaceOnUse">
<stop offset="0.0388426" stop-color="#7A34D4"/>
<stop offset="0.0739581" stop-color="#4739D4" stop-opacity="0.926042"/>
<stop offset="0.0791664" stop-color="#5B4FE1" stop-opacity="0.920834"/>
<stop offset="1" stop-color="#0F96D0" stop-opacity="0.8"/>
</linearGradient>
</defs>
</svg>
