<svg width="150" height="50" viewBox="0 0 259 93" fill="none" xmlns="http://www.w3.org/2000/svg">
<path d="M7.88843 10C7.88843 4.47715 12.3656 0 17.8884 0H242.427C247.949 0 252.427 4.47715 252.427 10V83C252.427 88.5228 247.949 93 242.427 93H17.8884C12.3656 93 7.88843 88.5229 7.88843 83V10Z" fill="url(#paint0_linear_231_8087)"/>
<path d="M44.8903 60.5V32.5H51.3703V60.5H44.8903ZM58.0153 60.5V32.5H63.3753L79.8953 52.66H77.2953V32.5H83.6953V60.5H78.3753L61.8153 40.34H64.4153V60.5H58.0153ZM101.648 60.5V32.5H107.008L123.528 52.66H120.928V32.5H127.328V60.5H122.008L105.448 40.34H108.048V60.5H101.648ZM147.473 60.98C145.259 60.98 143.219 60.6333 141.353 59.94C139.513 59.22 137.899 58.2067 136.513 56.9C135.153 55.5933 134.086 54.06 133.313 52.3C132.566 50.54 132.193 48.6067 132.193 46.5C132.193 44.3933 132.566 42.46 133.313 40.7C134.086 38.94 135.166 37.4067 136.553 36.1C137.939 34.7933 139.566 33.7933 141.433 33.1C143.299 32.38 145.353 32.02 147.593 32.02C150.073 32.02 152.299 32.4333 154.273 33.26C156.273 34.0867 157.953 35.2867 159.313 36.86L155.153 40.7C154.139 39.6333 153.033 38.8467 151.833 38.34C150.633 37.8067 149.326 37.54 147.913 37.54C146.553 37.54 145.313 37.7533 144.193 38.18C143.073 38.6067 142.099 39.22 141.273 40.02C140.473 40.82 139.846 41.7667 139.393 42.86C138.966 43.9533 138.753 45.1667 138.753 46.5C138.753 47.8067 138.966 49.0067 139.393 50.1C139.846 51.1933 140.473 52.1533 141.273 52.98C142.099 53.78 143.059 54.3933 144.153 54.82C145.273 55.2467 146.499 55.46 147.833 55.46C149.113 55.46 150.353 55.26 151.553 54.86C152.779 54.4333 153.966 53.7267 155.113 52.74L158.793 57.42C157.273 58.5667 155.499 59.4467 153.473 60.06C151.473 60.6733 149.473 60.98 147.473 60.98ZM152.873 56.58V46.06H158.793V57.42L152.873 56.58ZM161.132 60.5L173.612 32.5H180.012L192.532 60.5H185.732L175.492 35.78H178.052L167.772 60.5H161.132ZM167.372 54.5L169.092 49.58H183.492L185.252 54.5H167.372ZM200.678 60.5V49.06L202.158 52.98L189.838 32.5H196.718L206.158 48.22H202.198L211.678 32.5H218.038L205.718 52.98L207.158 49.06V60.5H200.678Z" fill="white"/>
<defs>
<linearGradient id="paint0_linear_231_8087" x1="25.0001" y1="74.5" x2="236.5" y2="20" gradientUnits="userSpaceOnUse">
<stop offset="0.0388426" stop-color="#7A34D4"/>
<stop offset="0.0739581" stop-color="#4739D4" stop-opacity="0.926042"/>
<stop offset="0.0791664" stop-color="#5B4FE1" stop-opacity="0.920834"/>
<stop offset="1" stop-color="#0F96D0" stop-opacity="0.8"/>
</linearGradient>
</defs>
</svg>
